    <svg id="Lager_1" data-name="Lager 1" xmlns="http://www.w3.org/2000/svg"
         viewBox="0 0 317.51 70">
        <title>ARKET</title>
        <g id="Page-1">
            <path id="ARKET"
                  d="M117.14,55.2c-.1-6.7-.3-14.6-9.4-17.3,7.9-1.5,13.4-6.9,13.4-17.3,0-13.4-9.8-20.6-24.4-20.6H71.14V70H80V41.6h24.2c4.8,4.1,3.8,8.5,3.8,14.2,0,4.1.5,10.1,3.9,14.2h9.9c-3.5-4-4.6-9.7-4.7-14.8ZM80.21,33.6V8.1h16.7c10.3,0,15.3,4.4,15.3,12.4s-5,13.1-15.3,13.1ZM54.5,70h9.1L38.4,0H25.2L0,70H9.1l6.5-18.1H48Zm-36-26.1L31.8,6.8,45.1,43.9ZM166.81,24.2,190.31,0h-12l-35.6,36.6V0h-8.9V70h8.9V49l17.5-18,7.7,19.4c2.5,6.2,5.6,15,9.1,19.6h9.9c-4-5.5-7.4-13.1-10.2-20.3ZM249.71,8V0H201V70h48.7V62h-39.8V38h36V30h-36V8Zm67.8-8h-58.7V8h24.9V70h8.9V8h24.9Z"></path>
        </g>
    </svg>