<svg width="84" height="84" viewBox="0 0 84 84" fill="none" xmlns="http://www.w3.org/2000/svg">
  <path d="M67.3444 37.7137C65.3188 32.3303 60.1213 28.5 54.0312 28.5C52.6291 28.5 51.275 28.7034 49.9931 29.0819C46.5238 23.4797 40.3222 19.75 33.25 19.75C22.5225 19.75 13.7944 28.3338 13.5669 39.0066C9.64031 41.2794 7 45.5253 7 50.375C7 54.7478 9.13937 58.6219 12.4272 61.0041C13.2737 59.2212 14.5884 57.7009 16.2137 56.6072C17.8084 50.5041 23.3625 46 29.9688 46C34.0112 46 37.6578 47.6866 40.2456 50.3925C40.4644 50.3816 40.6831 50.375 40.9062 50.375C46.0841 50.375 50.4984 53.6453 52.1937 58.2325C53.5391 59.6784 54.495 61.4875 54.9062 63.5H63.875C71.12 63.5 77 57.6091 77 50.375C77 44.3244 72.9094 39.2341 67.3444 37.7137Z" fill="#757575"/>
  <path d="M51.9073 24.2453C52.6095 24.1666 53.3139 24.125 54.0314 24.125C60.6158 24.125 66.3995 27.5462 69.7048 32.7087C72.6295 32.0394 74.8127 29.4253 74.8127 26.3125C74.8127 24.2672 73.8808 22.4406 72.4108 21.2397C71.6058 17.8753 68.5783 15.375 64.9689 15.375C64.0983 15.375 63.2605 15.5194 62.4773 15.7884C60.7602 12.9206 57.6211 11 54.0314 11C49.5164 11 45.708 14.0428 44.5508 18.1881C47.3902 19.7019 49.8905 21.7691 51.9073 24.2453Z" fill="#757575"/>
  <path d="M40.9062 54.75C40.0356 54.75 39.1978 54.8944 38.4169 55.1634C36.6975 52.2956 33.5584 50.375 29.9688 50.375C24.7756 50.375 20.5231 54.3956 20.1513 59.4947C17.5875 60.3938 15.75 62.8284 15.75 65.6875C15.75 69.3122 18.6747 72.25 22.3344 72.25H44.1656C47.8013 72.25 50.75 69.3013 50.75 65.6875C50.75 63.64 49.8181 61.8156 48.3481 60.6169C47.5431 57.2503 44.5156 54.75 40.9062 54.75Z" fill="#757575"/>
</svg>
