<svg width="84" height="84" viewBox="0 0 84 84" fill="none" xmlns="http://www.w3.org/2000/svg">
<path d="M23.4174 27.4357C24.6707 28.6858 26.6843 28.7049 27.9376 27.4516C29.1781 26.2111 29.1877 24.2039 27.9153 22.9315L23.462 18.4782C22.2055 17.2249 20.192 17.2058 18.9418 18.4591C17.7013 19.7028 17.6917 21.7068 18.9641 22.9792L23.4174 27.4357Z" fill="#757575"/>
<path d="M43.6896 62.283C54.2303 62.283 62.7753 53.7381 62.7753 43.1973C62.7753 32.6566 54.2303 24.1116 43.6896 24.1116C33.1488 24.1116 24.6039 32.6566 24.6039 43.1973C24.6039 53.7381 33.1488 62.283 43.6896 62.283Z" fill="#757575"/>
<path d="M21.4134 43.2069C21.4134 41.451 20.0011 40.026 18.2007 40.026H11.8992C10.1274 40.026 8.68964 41.4383 8.68964 43.2069C8.68964 44.966 10.102 46.3879 11.8992 46.3879H18.2007C19.9756 46.3879 21.4134 44.9787 21.4134 43.2069Z" fill="#757575"/>
<path d="M75.48 40.026H69.1818C67.4036 40.026 65.9658 41.4383 65.9658 43.2069C65.9658 44.966 67.3813 46.3879 69.1818 46.3879H75.48C77.2518 46.3879 78.6896 44.9787 78.6896 43.2069C78.6896 41.451 77.2773 40.026 75.48 40.026Z" fill="#757575"/>
<path d="M23.4142 58.9812L18.9609 63.4345C17.7076 64.691 17.6885 66.7077 18.9386 67.9547C20.1824 69.1921 22.1864 69.2016 23.4588 67.9324L27.9121 63.4791C29.1686 62.2226 29.1877 60.2122 27.9344 58.9589C26.6906 57.7184 24.6866 57.7088 23.4142 58.9812Z" fill="#757575"/>
<path d="M43.6896 20.9307C45.4487 20.9307 46.8706 19.5184 46.8706 17.7179V11.4197C46.8706 9.64468 45.4614 8.20689 43.6896 8.20689C41.9306 8.20689 40.5087 9.61924 40.5087 11.4197V17.7179C40.5087 19.4929 41.921 20.9307 43.6896 20.9307Z" fill="#757575"/>
<path d="M43.6897 65.4831C41.9306 65.4831 40.5087 66.8986 40.5087 68.699V74.9973C40.5087 76.7754 41.9211 78.2069 43.6897 78.2069C45.4487 78.2069 46.8706 76.8009 46.8706 74.9973V68.699C46.8706 66.9209 45.4615 65.4831 43.6897 65.4831Z" fill="#757575"/>
<path d="M63.9619 27.4357L68.4152 22.9792C69.6717 21.7227 69.6876 19.7124 68.4375 18.4591C67.1906 17.2185 65.1897 17.209 63.9174 18.4814L59.464 22.9347C58.2076 24.188 58.1917 26.2047 59.4418 27.4548C60.6887 28.6954 62.6895 28.7049 63.9619 27.4357Z" fill="#757575"/>
<path d="M63.9618 58.9812C62.7054 57.7247 60.695 57.7088 59.4417 58.9589C58.2011 60.2059 58.1884 62.2067 59.464 63.4791L63.9173 67.9324C65.1738 69.1889 67.1841 69.2048 68.4374 67.9547C69.6748 66.7141 69.6844 64.7069 68.4152 63.4345L63.9618 58.9812Z" fill="#757575"/>
</svg>
