<svg width="84" height="84" viewBox="0 0 84 84" fill="none" xmlns="http://www.w3.org/2000/svg">
<path d="M66.8709 28.2196L69.933 25.1553C70.797 24.2935 70.8057 22.909 69.9505 22.0494C69.0953 21.1942 67.7174 21.1877 66.8403 22.0625L63.7782 25.1269C62.9142 25.9908 62.9033 27.3753 63.7629 28.2349C64.6181 29.0901 65.996 29.0967 66.8709 28.2196Z" fill="#757575"/>
<path d="M52.9317 23.7489C54.1413 23.7489 55.119 22.78 55.119 21.5398V17.2069C55.119 15.9886 54.15 15 52.9317 15C51.7222 15 50.7445 15.9689 50.7445 17.2069V21.542C50.7445 22.7603 51.7134 23.7489 52.9317 23.7489Z" fill="#757575"/>
<path d="M68.2511 39.0682C68.2511 40.2756 69.2201 41.2555 70.4602 41.2555H74.7909C76.0114 41.2555 77 40.2843 77 39.0682C77 37.8609 76.0311 36.881 74.7909 36.881H70.4602C69.2397 36.881 68.2511 37.8521 68.2511 39.0682Z" fill="#757575"/>
<path d="M67.3368 43.8977C66.9606 42.9025 66.4772 41.9576 65.902 41.0827C66.0048 40.4221 66.0551 39.7463 66.0551 39.0595C66.0551 31.8132 60.1758 25.9361 52.9318 25.9361C49.5787 25.9361 46.5188 27.1938 44.2003 29.2629C41.0682 27.1632 37.3018 25.9361 33.2467 25.9361C22.5206 25.9361 13.7935 34.5166 13.5661 45.1903C9.64217 47.4628 7 51.7082 7 56.5573C7 63.8014 12.8771 69.6807 20.1234 69.6807H63.8679C71.112 69.6807 76.9912 63.7905 76.9912 56.5573C76.9912 50.5074 72.9011 45.4178 67.3368 43.8977ZM54.0254 34.685C52.6234 34.685 51.2695 34.8885 49.9921 35.2647C49.2944 34.1404 48.4873 33.0906 47.5862 32.1326C49.0604 30.9908 50.9173 30.3106 52.9318 30.3106C56.9541 30.3106 60.3443 33.0271 61.3635 36.7235C59.2222 35.4287 56.7135 34.685 54.0254 34.685Z" fill="#757575"/>
</svg>
