<svg width="84" height="84" viewBox="0 0 84 84" fill="none" xmlns="http://www.w3.org/2000/svg">
  <path d="M54.0314 28.75C52.6292 28.75 51.2751 28.9534 49.9932 29.3319C49.3873 28.3453 48.696 27.4222 47.9239 26.5625H18.5764C17.4017 27.875 16.402 29.3428 15.6101 30.9375H61.6132C59.4192 29.5506 56.816 28.75 54.0314 28.75Z" fill="#757575"/>
  <path d="M64.2885 33.125H14.6825C14.1904 34.5184 13.8513 35.9841 13.6829 37.5H67.1585C66.476 35.8637 65.4982 34.3828 64.2885 33.125Z" fill="#757575"/>
  <path d="M71.1332 39.6875H12.8735C11.1891 40.8097 9.77817 42.3059 8.76099 44.0625H75.2457C74.2263 42.3059 72.8197 40.8075 71.1332 39.6875Z" fill="#757575"/>
  <path d="M20.125 63.75H63.875C67.7578 63.75 71.2491 62.0591 73.6553 59.375H10.3425C12.7466 62.0634 16.24 63.75 20.125 63.75Z" fill="#757575"/>
  <path d="M8.75664 57.1875H75.2391C76.0113 55.8597 76.5538 54.3831 76.8185 52.8125H7.18164C7.44414 54.3831 7.98664 55.8597 8.75664 57.1875Z" fill="#757575"/>
  <path d="M76.2519 46.25H7.75031C7.26469 47.6194 7 49.0916 7 50.625H77C77 49.0916 76.7375 47.6194 76.2519 46.25Z" fill="#757575"/>
  <path d="M33.2499 20C28.5599 20 24.2571 21.6384 20.8752 24.375H45.6246C42.2427 21.6384 37.9399 20 33.2499 20Z" fill="#757575"/>
</svg>
