<svg width="84" height="84" viewBox="0 0 84 84" fill="none" xmlns="http://www.w3.org/2000/svg">
  <g clip-path="url(#clip0_1204_536)">
    <path d="M50.7445 68.2467C49.5349 68.2467 48.5573 69.2156 48.5573 70.4558V74.7865C48.5573 76.007 49.5262 76.9956 50.7445 76.9956C51.954 76.9956 52.9317 76.0267 52.9317 74.7865V70.4558C52.9317 69.2353 51.9628 68.2467 50.7445 68.2467Z" fill="#757575"/>
    <path d="M66.8709 20.2239L69.933 17.1596C70.7992 16.2978 70.8057 14.9133 69.9505 14.0537C69.0953 13.1985 67.7174 13.192 66.8403 14.0668L63.7782 17.1312C62.9142 17.9951 62.9033 19.3796 63.7629 20.2392C64.6181 21.0944 65.996 21.101 66.8709 20.2239Z" fill="#757575"/>
    <path d="M33.2467 68.2467C32.0371 68.2467 31.0594 69.2156 31.0594 70.4558V74.7865C31.0594 76.007 32.0306 76.9956 33.2467 76.9956C34.4562 76.9956 35.4339 76.0267 35.4339 74.7865V70.4558C35.4339 69.2353 34.4628 68.2467 33.2467 68.2467Z" fill="#757575"/>
    <path d="M52.9317 15.7533C54.1413 15.7533 55.119 14.7844 55.119 13.5442V9.21131C55.119 7.99302 54.15 7.00439 52.9317 7.00439C51.7222 7.00439 50.7445 7.97334 50.7445 9.21131V13.5464C50.7445 14.7647 51.7134 15.7533 52.9317 15.7533Z" fill="#757575"/>
    <path d="M59.4934 63.8722C58.2838 63.8722 57.3062 64.8411 57.3062 66.0813V70.412C57.3062 71.6325 58.2751 72.6211 59.4934 72.6211C60.7029 72.6211 61.6806 71.6522 61.6806 70.412V66.0813C61.6806 64.8608 60.7117 63.8722 59.4934 63.8722Z" fill="#757575"/>
    <path d="M41.9956 63.8722C40.786 63.8722 39.8083 64.8411 39.8083 66.0813V70.412C39.8083 71.6325 40.7795 72.6211 41.9956 72.6211C43.2051 72.6211 44.1828 71.6522 44.1828 70.412V66.0813C44.1828 64.8608 43.2139 63.8722 41.9956 63.8722Z" fill="#757575"/>
    <path d="M68.2511 31.0726C68.2511 32.28 69.22 33.2598 70.4602 33.2598H74.7909C76.0114 33.2598 77 32.2887 77 31.0726C77 29.8653 76.0311 28.8854 74.7909 28.8854H70.4602C69.2397 28.8854 68.2511 29.8565 68.2511 31.0726Z" fill="#757575"/>
    <path d="M24.4978 63.8722C23.2882 63.8722 22.3105 64.8411 22.3105 66.0813V70.412C22.3105 71.6325 23.2817 72.6211 24.4978 72.6211C25.7073 72.6211 26.685 71.6522 26.685 70.412V66.0813C26.685 64.8608 25.7139 63.8722 24.4978 63.8722Z" fill="#757575"/>
    <path d="M67.3368 35.9019C66.9606 34.9067 66.4772 33.9619 65.902 33.087C66.0048 32.4264 66.0551 31.7506 66.0551 31.0638C66.0551 23.8175 60.1758 17.9404 52.9318 17.9404C49.5787 17.9404 46.5188 19.1981 44.2003 21.2672C41.0682 19.1675 37.3018 17.9404 33.2467 17.9404C22.5206 17.9404 13.7935 26.5209 13.5661 37.1946C9.63998 39.4671 7 43.7125 7 48.5616C7 55.8057 12.8793 61.685 20.1234 61.685H63.8679C71.112 61.685 76.9912 55.7948 76.9912 48.5616C76.9912 42.5139 72.9011 37.4221 67.3368 35.9019ZM54.0254 26.6893C52.6234 26.6893 51.2695 26.8927 49.9921 27.269C49.2944 26.1447 48.4873 25.0948 47.5862 24.1368C49.0604 22.9951 50.9173 22.3149 52.9318 22.3149C56.9541 22.3149 60.3443 25.0314 61.3635 28.7278C59.2222 27.433 56.7135 26.6893 54.0254 26.6893Z" fill="#757575"/>
  </g>
  <defs>
    <clipPath id="clip0_1204_536">
      <rect width="70" height="70" fill="white" transform="translate(7 7)"/>
    </clipPath>
  </defs>
</svg>
