<svg width="84" height="84" viewBox="0 0 84 84" fill="none" xmlns="http://www.w3.org/2000/svg">
  <path d="M50.75 62.3125C49.5403 62.3125 48.5625 63.2816 48.5625 64.5219V68.8531C48.5625 70.0737 49.5316 71.0625 50.75 71.0625C51.9597 71.0625 52.9375 70.0934 52.9375 68.8531V64.5219C52.9375 63.3013 51.9684 62.3125 50.75 62.3125Z" fill="#757575"/>
  <path d="M42 57.9375C40.7903 57.9375 39.8125 58.9066 39.8125 60.1469V64.4781C39.8125 65.6987 40.7837 66.6875 42 66.6875C43.2097 66.6875 44.1875 65.7184 44.1875 64.4781V60.1469C44.1875 58.9263 43.2184 57.9375 42 57.9375Z" fill="#757575"/>
  <path d="M33.25 62.3125C32.0403 62.3125 31.0625 63.2816 31.0625 64.5219V68.8531C31.0625 70.0737 32.0337 71.0625 33.25 71.0625C34.4597 71.0625 35.4375 70.0934 35.4375 68.8531V64.5219C35.4375 63.3013 34.4662 62.3125 33.25 62.3125Z" fill="#757575"/>
  <path d="M67.3444 29.9637C65.3188 24.5803 60.1213 20.75 54.0312 20.75C52.6291 20.75 51.275 20.9534 49.9931 21.3319C46.5238 15.7297 40.3222 12 33.25 12C22.5225 12 13.7944 20.5816 13.5669 31.2566C9.64031 33.5294 7 37.7753 7 42.625C7 49.87 12.8778 55.75 20.125 55.75H63.875C71.12 55.75 77 49.8591 77 42.625C77 36.5766 72.9094 31.4841 67.3444 29.9637Z" fill="#757575"/>
  <path d="M59.5 57.9375C58.2903 57.9375 57.3125 58.9066 57.3125 60.1469V64.4781C57.3125 65.6987 58.2816 66.6875 59.5 66.6875C60.7097 66.6875 61.6875 65.7184 61.6875 64.4781V60.1469C61.6875 58.9263 60.7184 57.9375 59.5 57.9375Z" fill="#757575"/>
  <path d="M24.5 57.9375C23.2903 57.9375 22.3125 58.9066 22.3125 60.1469V64.4781C22.3125 65.6987 23.2837 66.6875 24.5 66.6875C25.7097 66.6875 26.6875 65.7184 26.6875 64.4781V60.1469C26.6875 58.9263 25.7162 57.9375 24.5 57.9375Z" fill="#757575"/>
</svg>
