<svg width="84" height="84" viewBox="0 0 84 84" fill="none" xmlns="http://www.w3.org/2000/svg">
  <path d="M67.632 35.6H57.4496L60.112 32.9376C62.6144 30.4416 62.6272 26.4096 60.0992 23.9008C57.6032 21.3984 53.5264 21.424 51.0624 23.888L48.4 26.5504V16.368C48.4 12.848 45.5648 10 42 10C38.4608 10 35.6 12.9184 35.6 16.368V26.5504L32.9376 23.888C30.4416 21.392 26.4096 21.3792 23.9008 23.9008C21.3984 26.3968 21.424 30.4736 23.888 32.9376L26.5504 35.6H16.368C12.848 35.6 10 38.4416 10 42C10 45.5392 12.9184 48.4 16.368 48.4H26.5504L23.888 51.0624C21.392 53.5648 21.3792 57.5904 23.9008 60.0992C26.3968 62.6016 30.4736 62.576 32.9376 60.112L35.6 57.4496V67.632C35.6 71.152 38.4416 74 42 74C45.5392 74 48.4 71.0816 48.4 67.632V57.4496L51.0624 60.112C53.5648 62.608 57.5904 62.6272 60.0992 60.0992C62.6016 57.6032 62.576 53.5264 60.112 51.0624L57.4496 48.4H67.632C71.152 48.4 74 45.5648 74 42C74 38.4608 71.0816 35.6 67.632 35.6ZM42 48.4C38.4416 48.4 35.6 45.5392 35.6 42C35.6 38.4416 38.4608 35.6 42 35.6C45.5648 35.6 48.4 38.4608 48.4 42C48.4 45.5648 45.5392 48.4 42 48.4Z" fill="#757575"/>
</svg>
