<svg width="84" height="84" viewBox="0 0 84 84" fill="none" xmlns="http://www.w3.org/2000/svg">
  <path d="M67.3444 32.9637C65.3188 27.5803 60.1213 23.75 54.0312 23.75C52.6291 23.75 51.275 23.9534 49.9931 24.3319C46.5238 18.7297 40.3222 15 33.25 15C22.5225 15 13.7944 23.5816 13.5669 34.2566C9.64031 36.5294 7 40.7753 7 45.625C7 52.87 12.88 58.75 20.125 58.75H28.28L35.4375 39.0625H55.125L48.5625 52.1875H59.5L52.9375 58.75H63.875C71.12 58.75 77 52.8591 77 45.625C77 39.5766 72.9094 34.4841 67.3444 32.9637Z" fill="#757575"/>
  <path d="M48.5625 43.4375H39.1869L33.25 58.75H38.5634L35.4375 69.6875L50.75 54.375H43.2053L48.5625 43.4375Z" fill="#757575"/>
</svg>
